# xmcd
# Track frame offsets:
# 150
# 16023
# 29796
# 45219
# 62892
# 79965
# 98088
# 115686
# 133959
# 150657
# 173355
# 184053
#
# Disc length: 2574 seconds
# Revision: 0
# Processed by: cddbd v1.5.2PL0 Copyright (c) Steve Scherf et al.
# Submitted via: VisiTrax 2.11.0.264 - For more info visit www.synapsa.com
#
DISCID=900a0c0c
DTITLE=Amy MacDonald - This Is The Life
DYEAR=2007
DGENRE=POP
TTITLE0=Mr. Rock And Roll
TTITLE1=This Is The Life
TTITLE2=Poison Prince
TTITLE3=Youth Of Today
TTITLE4=Run
TTITLE5=Let's Start A Band
TTITLE6=Barrowland Ballroom
TTITLE7=L.A.
TTITLE8=A Wish For Something More
TTITLE9=Footballer's Wife
TTITLE10=The Road To Home
TTITLE11=Caledonia (Bonus Track)
EXTD=
EXTT0=
EXTT1=
EXTT2=
EXTT3=
EXTT4=
EXTT5=
EXTT6=
EXTT7=
EXTT8=
EXTT9=
EXTT10=
EXTT11=
PLAYORDER=
